<svg width="125" height="26" viewBox="0 0 125 26" fill="none" xmlns="http://www.w3.org/2000/svg">
<mask id="mask0_2_294" style="mask-type:alpha" maskUnits="userSpaceOnUse" x="0" y="0" width="125" height="26">
<path fill-rule="evenodd" clip-rule="evenodd" d="M0 0H125V26H0V0Z" fill="white"/>
</mask>
<g mask="url(#mask0_2_294)">
<path fill-rule="evenodd" clip-rule="evenodd" d="M122.317 1.18527V16.8505H109.985V1.18527H107.3V16.8505H98.164L99.1847 19.2681L107.3 19.2747V26H109.985V19.2763L122.317 19.2862V26H125V1.18527H122.317ZM82.8927 16.3907L87.0137 6.4513L91.0391 16.3907H82.8927ZM75.9589 26H78.8988L81.8056 18.9569H92.093L94.9367 26H97.9082L87.0776 0L75.9589 26ZM70.5282 16.8381H58.1961V1.18527H55.5127V26H58.1961V19.4051H70.5282V26H73.2116V1.18527H70.5282V16.8381ZM43.7869 12.5724H41.998V3.75225H42.9888C46.1198 3.75225 49.2823 4.04857 49.2823 8.09632C49.2823 11.6513 46.7584 12.5724 43.7869 12.5724V12.5724ZM49.25 2.50178C47.4934 1.25048 45.3532 1.18527 43.2761 1.18527H39.3146V26H41.998V15.1394H43.9472C45.9603 15.1394 48.0366 14.8761 49.666 13.4936C51.1676 12.2101 51.9665 10.1705 51.9665 8.16235C51.9665 5.95689 51.0397 3.78444 49.25 2.50178V2.50178ZM27.2513 1.18527H24.5671V26H36.6629V23.433H27.2513V1.18527ZM6.93221 16.3907L11.0532 6.4513L15.0794 16.3907H6.93221ZM0 26H2.93834L5.84592 18.9569H16.1325L18.9762 26H21.9477L11.1171 0L0 26Z" fill="white"/>
</g>
</svg>
